<mxfile host="app.diagrams.net" modified="2022-02-28T08:36:38.934Z" agent="5.0 (Macintosh; Intel Mac OS X 10_15_7) AppleWebKit/537.36 (KHTML, like Gecko) Chrome/94.0.4606.71 Safari/537.36" etag="ihky__Ug5vVuA9ZZvY9m" version="16.6.2" type="github">
  <diagram id="rpnPFhcKHsLJLUHurTy8" name="Page-1">
    <mxGraphModel dx="1042" dy="674" grid="1" gridSize="10" guides="1" tooltips="1" connect="1" arrows="1" fold="1" page="1" pageScale="1" pageWidth="850" pageHeight="1100" math="0" shadow="0">
      <root>
        <mxCell id="0" />
        <mxCell id="1" parent="0" />
        <mxCell id="c_gcUu_sHlHNzXNQJ0Pz-4" style="edgeStyle=orthogonalEdgeStyle;rounded=0;orthogonalLoop=1;jettySize=auto;html=1;" edge="1" parent="1" source="c_gcUu_sHlHNzXNQJ0Pz-2" target="c_gcUu_sHlHNzXNQJ0Pz-5">
          <mxGeometry relative="1" as="geometry">
            <mxPoint x="280" y="330" as="targetPoint" />
          </mxGeometry>
        </mxCell>
        <mxCell id="c_gcUu_sHlHNzXNQJ0Pz-2" value="Notification Acceptance Service" style="rounded=1;whiteSpace=wrap;html=1;" vertex="1" parent="1">
          <mxGeometry x="140" y="300" width="100" height="60" as="geometry" />
        </mxCell>
        <mxCell id="c_gcUu_sHlHNzXNQJ0Pz-5" value="Kafka" style="shape=process;whiteSpace=wrap;html=1;backgroundOutline=1;" vertex="1" parent="1">
          <mxGeometry x="290" y="300" width="120" height="60" as="geometry" />
        </mxCell>
      </root>
    </mxGraphModel>
  </diagram>
</mxfile>
